<svg width="257" height="257" viewBox="0 0 257 257" xmlns="http://www.w3.org/2000/svg"><title>Slice 1</title><g fill="none" fill-rule="evenodd"><path d="M80.4480104 140.217324c4.418278 0 8-3.581722 8-8s-3.581722-8-8-8-8 3.581722-8 8 3.581722 8 8 8zM128.44801 160.217324c4.418278 0 8-3.581722 8-8s-3.581722-8-8-8-8 3.581722-8 8 3.581722 8 8 8zM176.44801 140.217324c4.418278 0 8-3.581722 8-8s-3.581722-8-8-8-8 3.581722-8 8 3.581722 8 8 8z" fill="#FFF"/><path d="M108.44801 224.217324v-34.268l-30.7359996-28.816c-.808-.752-1.264-1.812-1.264-2.916v-10.568c-6.884-1.788-12-8-12-15.432 0-8.824 7.176-16 16-16s16 7.176 16 16c0 7.432-5.116 13.644-12 15.432v8.836l30.7359996 28.816c.808.756 1.264 1.812 1.264 2.916v36h8v-56.568c-6.884-1.788-12-8-12-15.432 0-8.824 7.176-16 16-16s16 7.176 16 16c0 7.432-5.116 13.644-12 15.432v56.568h8v-36c0-1.104.456-2.16 1.264-2.916l30.736-28.816v-8.836c-6.884-1.788-12-8-12-15.432 0-8.824 7.176-16 16-16s16 7.176 16 16c0 7.432-5.116 13.644-12 15.432v10.568c0 1.104-.456 2.164-1.264 2.916l-30.736 28.816v34.268h2l46.128-61.508 7.892-78.8919997c-.02-41.508-34.112-75.6-76.02-75.6-41.9079996 0-75.9999996 34.092-75.9999996 76l7.868 78.4919997 46.1319996 61.508h2zm2.008-108.812c-11.1079996-6.42-18.0079996-18.3679997-18.0079996-31.1879997 0-16.888 11.7039996-31.06 27.4199996-34.924l-6.248-6.248 5.656-5.656 12 12c1.22 1.216 1.52 3.076.752 4.616l-8 16-7.156-3.58 4.656-9.308c-12.1 3.096-21.08 14.056-21.08 27.1 0 9.972 5.368 19.2679997 14.008 24.2599997l-4 6.928zm-6.008-27.1879997v-8h48v8h-48zm32.58 30.9239997l6.248 6.248-5.656 5.656-12-12c-1.22-1.216-1.52-3.076-.752-4.616l8-15.9999997 7.156 3.5799997-4.656 9.308c12.1-3.096 21.08-14.0519997 21.08-27.0999997 0-9.968-5.368-19.26-14.004-24.256l4.008-6.924c11.1 6.42 17.996 18.368 17.996 31.18 0 16.8879997-11.704 31.0599997-27.42 34.9239997zM77.4960104 57.8653243c-.688-1.792-1.048-3.704-1.048-5.648 0-8.824 7.176-16 16-16 0-8.824 7.176-16 15.9999996-16 2.664 0 5.28.684 7.6 1.952 2.984-3.684 7.524-5.952 12.4-5.952s9.416 2.268 12.4 5.952c2.32-1.268 4.936-1.952 7.6-1.952 8.824 0 16 7.176 16 16 8.824 0 16 7.176 16 16 0 1.944-.36 3.856-1.048 5.648 5.368 2.6 9.048 8.092 9.048 14.352 0 8.824-7.176 16-16 16h-4v-8h4c4.408 0 8-3.588 8-8 0-4.16-3.276-7.64-7.456-7.928-1.536-.104-2.872-1.08-3.44-2.508-.572-1.428-.268-3.056.768-4.188 1.368-1.496 2.128-3.404 2.128-5.376 0-5.584-6.028-9.844-11.496-7.148-1.528.756-3.38.456-4.596-.76-1.212-1.208-1.516-3.056-.76-4.592.564-1.152.852-2.328.852-3.5 0-4.412-3.592-8-8-8-2.224 0-4.296.916-5.844 2.588-.944 1.02-2.352 1.476-3.72 1.2-1.364-.272-2.488-1.236-2.968-2.54-1.156-3.14-4.156-5.248-7.468-5.248-3.312 0-6.312 2.108-7.468 5.248-.48 1.304-1.604 2.268-2.968 2.54-1.364.272-2.768-.18-3.72-1.2-1.548-1.672-3.62-2.588-5.844-2.588-4.412 0-8 3.588-8 8 0 1.172.288 2.348.856 3.5.752 1.536.448 3.384-.76 4.592-1.2159996 1.212-3.0599996 1.512-4.5959996.76-5.472-2.696-11.5 1.564-11.5 7.148 0 1.972.76 3.88 2.128 5.376 1.04 1.132 1.34 2.76.768 4.188-.572 1.428-1.908 2.404-3.44 2.508-4.18.288-7.456 3.768-7.456 7.928 0 4.412 3.588 8 8 8h4v8h-4c-8.824 0-16-7.176-16-16 0-6.26 3.68-11.752 9.048-14.352z" fill="#FFF"/><path d="M172.20801 220.821324l-7.12-2.788-9.44 12.584c-.756 1.008-1.94 1.6-3.2 1.6h-48c-1.26 0-2.444-.592-3.2-1.6l-9.4399996-12.584-7.12 2.788 1.244 3.112-77.48399997 30.992v1.292H248.44801v-1.292l-77.484-30.992 1.244-3.112z" fill="#F3F3F3"/><path d="M104.44801 232.217324h48c1.26 0 2.444-.592 3.2-1.6l9.44-12.584 38.56-51.416c.436-.584.708-1.276.78-2l8.02-80.3999997c0-46.32-37.684-84-84-84-46.3159996 0-83.9999996 37.68-83.9799996 84.4l8 79.9999997c.072.724.344 1.416.78 2l38.56 51.416 9.4399996 12.584c.756 1.008 1.94 1.6 3.2 1.6zm24-223.9999997c41.908 0 76 34.092 76.02 75.6l-7.892 78.8919997-46.128 61.508h-2v-34.268l30.736-28.816c.808-.752 1.264-1.812 1.264-2.916v-10.568c6.884-1.788 12-8 12-15.432 0-8.824-7.176-16-16-16s-16 7.176-16 16c0 7.432 5.116 13.644 12 15.432v8.836l-30.736 28.816c-.808.756-1.264 1.812-1.264 2.916v36h-8v-56.568c6.884-1.788 12-8 12-15.432 0-8.824-7.176-16-16-16s-16 7.176-16 16c0 7.432 5.116 13.644 12 15.432v56.568h-8v-36c0-1.104-.456-2.16-1.264-2.916l-30.7359996-28.816v-8.836c6.884-1.788 12-8 12-15.432 0-8.824-7.176-16-16-16s-16 7.176-16 16c0 7.432 5.116 13.644 12 15.432v10.568c0 1.104.456 2.164 1.264 2.916l30.7359996 28.816v34.268h-2l-46.1319996-61.508-7.868-78.4919997c0-41.908 34.092-76 75.9999996-76zm48 131.9999997c-4.412 0-8-3.588-8-8s3.588-8 8-8c4.408 0 8 3.588 8 8s-3.592 8-8 8zm-48 20c-4.412 0-8-3.588-8-8s3.588-8 8-8c4.408 0 8 3.588 8 8s-3.592 8-8 8zm-47.9999996-20c-4.412 0-8-3.588-8-8s3.588-8 8-8c4.408 0 8 3.588 8 8s-3.592 8-8 8z" fill="#F3F3F3"/><path d="M84.6880104 220.817324l-1.724-4.316-79.99999997 32c-1.52.612-2.516 2.08-2.516 3.716v4h8v-1.292l77.48399997-30.992-1.244-3.116zM253.93201 248.501324l-80-32-1.724 4.316-1.244 3.112 77.484 30.996v1.292h8v-4c0-1.636-.996-3.104-2.516-3.716z" fill="#FFF"/><path d="M88.4480104 88.2173243v-8h-4c-4.412 0-8-3.588-8-8 0-4.16 3.276-7.64 7.456-7.928 1.536-.104 2.872-1.08 3.44-2.508.572-1.428.268-3.056-.768-4.188-1.368-1.496-2.128-3.404-2.128-5.376 0-5.584 6.028-9.844 11.496-7.148 1.54.752 3.384.452 4.5959996-.76 1.212-1.208 1.516-3.056.76-4.592-.564-1.152-.852-2.328-.852-3.5 0-4.412 3.588-8 8-8 2.224 0 4.296.916 5.844 2.588.948 1.02 2.356 1.476 3.72 1.2 1.364-.272 2.488-1.236 2.968-2.54 1.156-3.14 4.156-5.248 7.468-5.248 3.312 0 6.312 2.108 7.468 5.248.48 1.304 1.604 2.268 2.968 2.54 1.368.276 2.772-.18 3.72-1.2 1.548-1.672 3.62-2.588 5.844-2.588 4.408 0 8 3.588 8 8 0 1.172-.288 2.348-.856 3.5-.752 1.536-.448 3.384.76 4.592 1.22 1.216 3.072 1.516 4.596.76 5.472-2.696 11.5 1.564 11.5 7.148 0 1.972-.76 3.88-2.128 5.376-1.04 1.132-1.34 2.76-.768 4.188.572 1.428 1.908 2.404 3.44 2.508 4.18.288 7.456 3.768 7.456 7.928 0 4.412-3.592 8-8 8h-4v8h4c8.824 0 16-7.176 16-16 0-6.26-3.68-11.752-9.048-14.352.688-1.792 1.048-3.704 1.048-5.648 0-8.824-7.176-16-16-16 0-8.824-7.176-16-16-16-2.664 0-5.28.684-7.6 1.952-2.984-3.684-7.524-5.952-12.4-5.952s-9.416 2.268-12.4 5.952c-2.32-1.268-4.936-1.952-7.6-1.952-8.8239996 0-15.9999996 7.176-15.9999996 16-8.824 0-16 7.176-16 16 0 1.944.36 3.856 1.048 5.648-5.368 2.6-9.048 8.092-9.048 14.352 0 8.824 7.176 16 16 16h4z" fill="#F3F3F3"/><path fill="#F3F3F3" d="M104.44801 80.2173243h48v8h-48z"/><path d="M142.44401 59.9613243c8.636 4.996 14.004 14.288 14.004 24.256 0 13.048-8.98 24.0039997-21.076 27.0999997l4.656-9.308-7.156-3.5799997-8 15.9999997c-.768 1.54-.468 3.4.752 4.616l12 12 5.656-5.656-6.248-6.248c15.712-3.864 27.416-18.036 27.416-34.9239997 0-12.812-6.896-24.76-17.996-31.18l-4.008 6.924zM121.52401 57.1213243l-4.656 9.308 7.156 3.58 8-16c.768-1.54.468-3.4-.752-4.616l-12-12-5.656 5.656 6.248 6.248c-15.712 3.86-27.4159996 18.032-27.4159996 34.92 0 12.82 6.9 24.7679997 18.0079996 31.1879997l4-6.928c-8.64-4.992-14.008-14.2879997-14.008-24.2599997 0-13.044 8.98-24.004 21.076-27.096z" fill="#F3F3F3"/></g></svg>